<?xml version="1.0" encoding="UTF-8"?><svg id="Layer_2" xmlns="http://www.w3.org/2000/svg" viewBox="0 0 93.94 51.78"><g id="svg3631"><path d="M92.89,24.97c-5.35-.88-7.12-.85-11.47-.69-1.83,.07-3.93,.11-4.66,.08-.74-.03-2.93,.08-4.87,.23l-3.54,.27-1.68-.59c-2.01-.71-4.03-1.2-6.14-1.48-1.33-.18-1.98-.18-4.5,.02-3.2,.26-5.48,.66-9.62,1.71-1.37,.35-2.5,.61-2.52,.6-.23-.24-1.05-2.61-1.22-3.55-.26-1.44-.62-1.88-1.58-1.92-.74-.03-1.23,.28-1.49,.93-.18,.44-.17,.86,.08,3.07,.25,2.24,.26,2.56,.06,2.58-.24,.02-.22,.09-.87-3.12-.84-4.12-.86-4.17-1.87-4.37-.54-.11-1.35,.18-1.54,.54-.12,.24-.36,.23-.38-.02,0-.11-.23-.36-.5-.55-.68-.49-1.47-.41-2.03,.21-.4,.44-.43,.45-.45,.15-.03-.36-.45-.83-.93-1.04-.62-.27-1.19-.11-1.69,.47-.41,.49-.47,.68-.53,1.78-.04,.68-.06,1.57-.05,1.98l.02,.74-.42-1.15c-1.49-4.07-2.27-8.49-3.01-16.89l-.23-2.58-.1,1.79-.1,1.79-.22-1.61c-.12-.89-.26-1.91-.31-2.27-.05-.39-.12,.3-.17,1.69-.08,2.19-.13,2.63-.31,2.48-.04-.03-.25-1.44-.46-3.12C23.37,1.43,23.17,.03,23.14,0c-.03-.03-.07,.9-.07,2.06-.02,3.29-.06,3.42-.48,1.78l-.36-1.38,.38,5.02c.49,6.54,1.14,10.34,2.44,14.15,.43,1.28,.44,2.2,.02,2.12-.14-.03-.92-.1-1.75-.16-5.98-.45-15.08,.11-21.9,1.35-.63,.11-1.01,.18-1.41,.19v3.39l4.09,.73c8.48,1.52,13.19,2.18,16.9,2.36,2.67,.13,2.52,.04,2.09,1.32-.5,1.48-1.15,2.53-4.62,7.47-1.67,2.37-2.98,4.31-2.92,4.31,.06,0,.6-.58,1.19-1.27,.59-.7,1.1-1.24,1.14-1.21,.04,.03-.45,.83-1.08,1.78-.63,.95-1.14,1.78-1.13,1.84,0,.06,.71-.71,1.57-1.71,1.5-1.75,2.1-2.21,1.46-1.13-.17,.28-.92,1.5-1.68,2.7l-1.37,2.18,1.81-2.07c1.38-1.59,1.74-1.92,1.52-1.45-.16,.34-.46,1-.66,1.46l-.37,.84,.45-.62c.25-.34,1.11-1.55,1.92-2.69,.81-1.14,1.94-2.69,2.53-3.47,1.05-1.39,2.41-3.7,2.97-5.03,.16-.38,.46-1.24,.66-1.9,.2-.67,.45-1.21,.55-1.21,.1,0,.6-.02,1.12-.05l.94-.05,.79,1.35c1.05,1.78,1.82,2.2,2.85,1.56,.71-.44,.87-1.25,.49-2.45-.35-1.09-.35-1.06,.06-1.09,.33-.03,.37,.05,.52,.89,.43,2.29,1.04,3.14,2.21,3.05,.54-.04,.72-.14,1.05-.54,.44-.55,.46-1.18,.09-2.27-.11-.34-.2-.88-.2-1.2,0-.41,.1-.12,.32,.95,.42,2.04,.59,2.49,1.1,2.8,.67,.41,1.45,.28,1.98-.34l.44-.52-.15-1.39c-.08-.77-.09-1.4-.01-1.4,.19-.01,.34,.36,.39,.98,.18,2.16,1.75,3.15,2.88,1.83l.45-.52,.21,.51c.18,.43,.56,2.31,1.09,5.33,.22,1.28,2.3,10.63,2.33,10.48,.01-.08,.03-.68,.04-1.33l.02-1.19,.82,2.46c.45,1.35,.82,2.32,.81,2.16,0-.16-.25-1.57-.53-3.14-.28-1.56-.48-2.88-.45-2.92,.15-.17,.32,.21,1,2.17,.76,2.18,.84,2.18,.41,0-.15-.75-.25-1.45-.22-1.55,.03-.1,.29,.51,.59,1.36,.3,.85,.56,1.52,.59,1.48,.03-.03-.25-1.4-.62-3.03-.98-4.33-1.57-7.21-2.03-9.8-.39-2.22-.69-3.32-1.25-4.58l-.27-.6,2.1-.16c2.38-.19,5.32-.59,10.07-1.39,1.81-.3,4.58-.75,6.14-.99l2.85-.44,2.45,.9c3.16,1.16,4.49,1.54,6.94,2l2,.38,2.57-.27c1.42-.15,5.19-.73,8.38-1.29l3.6-1.36v-3.39c-.32-.05-.67-.1-1.05-.17Zm-68.43,2.8c-.07,.39-.16,.73-.21,.76-.15,.09-3.99-.13-6.28-.37-2-.21-7.07-.93-7.41-1.07-.27-.1,7.33-.51,8.86-.47,2.22,.05,4.89,.24,5.04,.35,.07,.05,.07,.41,0,.8Zm7.81-2.59c-.08,0-.16-.16-.18-.37-.02-.21,.04-.34,.12-.3,.08,.04,.16,.21,.18,.37,.01,.16-.04,.29-.12,.3Zm3.63,.68c-.15-.56-.35-1.58-.43-2.26l-.15-1.25,.43,1.75h0c.49,2.02,.62,3.46,.16,1.77Zm13.79,19.87h0c.05,.1,.06,.23,.01,.28s-.09-.03-.09-.19c0-.17,.03-.21,.08-.1Zm3.64-18.5c-3.3,.46-5.92,.72-6.62,.68-.38-.03,.04-.17,1.59-.54,3.15-.75,5.83-1.22,7.93-1.39,1.77-.14,4.21-.09,4.06,.09-.09,.11-3.67,.71-6.96,1.16Zm31.16,.4c-2.12,.39-5.54,.48-7.03,.18-.72-.14-.73-.15-.24-.2,.28-.03,.99,0,1.58,.06,.64,.06,1.71,.03,2.69-.09,.89-.11,2.14-.18,2.78-.16l1.16,.03-.95,.17Z"/></g></svg>