<?xml version="1.0" encoding="utf-8"?>
<!-- Generator: Adobe Illustrator 26.3.1, SVG Export Plug-In . SVG Version: 6.00 Build 0)  -->
<svg version="1.1" id="Layer_2_00000003064535490164898090000009476760219336372611_"
	 xmlns="http://www.w3.org/2000/svg" xmlns:xlink="http://www.w3.org/1999/xlink" x="0px" y="0px" viewBox="0 0 1056.9 345.2"
	 style="enable-background:new 0 0 1056.9 345.2;" xml:space="preserve">
<style type="text/css">
	.st0{opacity:0.4;}
	.st1{fill:#FFFFFF;}
</style>
<g id="svg17">
	<g id="g4" transform="translate(11.7868,11.208)" class="st0">
		<path id="path2" class="st1" d="M-11.8,2.3h45.2V120h15.6V2.3h45.2v-13.5H-11.8V2.3z M148.3-11.2h-18.9L80.8,120h15.9l12.4-33.7
			H168l12.4,33.7h16.3L148.3-11.2z M138.6,5.3l25.3,67.5h-50.6L138.6,5.3L138.6,5.3z M277.9,47.5h-37.5c-9.2,0-15-5.8-15-15V17.3
			c0-9.2,5.8-15,15-15h34.9c9.2,0,15,5.8,15,15v10.9h15.6V16.7c0-16.9-11.2-27.9-27.9-27.9h-40.1c-16.7,0-27.9,11.1-27.9,27.9V33
			c0,16.7,11.2,27.9,27.9,27.9h37.5c9.2,0,15,6,15,15.2v15.2c0,9.4-5.8,15.2-15,15.2h-34.9c-9.2,0-15-5.8-15-15.2V80.6h-15.6v11.4
			c0,16.7,11.2,27.9,27.9,27.9h40.1c16.7,0,27.9-11.2,27.9-27.9V75.4C305.8,58.7,294.5,47.5,277.9,47.5L277.9,47.5z M407.1,120h21.2
			l-61.9-66.7l59.8-64.5h-19.3l-59.2,63.9v-63.9h-15.6V120h15.6V55.9L407.1,120L407.1,120z M497.8,120h15.6V64.7h56V51.2h-56V2.3
			h65.4v-13.5h-81L497.8,120L497.8,120z M674.1,91.3c0,9.2-5.8,15.2-15,15.2h-36.7c-9.2,0-15-6-15-15.2v-74c0-9.2,5.8-15,15-15h36.7
			c9.2,0,15,5.8,15,15V91.3L674.1,91.3z M689.7,92.1V16.7c0-16.9-11.2-27.9-27.9-27.9h-42c-16.7,0-27.9,11.1-27.9,27.9v75.4
			c0,16.7,11.2,27.9,27.9,27.9h42C678.4,120,689.7,108.8,689.7,92.1L689.7,92.1L689.7,92.1z M810,42.4V16.7
			c0-16.9-11.2-27.9-27.9-27.9h-66.2V120h15.6V70.3h39.5L793,120H810L787.2,70C801,67.9,810,57.4,810,42.4L810,42.4z M794.5,41.8
			c0,9.2-5.8,15-15,15h-48V2.3h48c9.2,0,15,5.8,15,15V41.8L794.5,41.8z M930.4,31V16.7c0-16.9-11.2-27.9-27.9-27.9h-42
			c-16.7,0-27.9,11.1-27.9,27.9v75.4c0,16.7,11.2,27.9,27.9,27.9h42c16.7,0,27.9-11.2,27.9-27.9V77.8h-15.6v13.5
			c0,9.2-5.8,15.2-15,15.2h-36.7c-9.2,0-15-6-15-15.2v-74c0-9.2,5.8-15,15-15h36.7c9.2,0,15,5.8,15,15V31H930.4z M956.7,120h84.7
			v-13.5h-69.2V61h59.8V47.5h-59.8V2.3h69.2v-13.5h-84.7V120L956.7,120z M107.8,334h38.8V158.9h-38.8v70.6h-62v-70.6H7V334h38.8
			v-70.8h62L107.8,334L107.8,334z M176.6,334h122.1v-33.8h-83.3v-37h70.8v-33.8h-70.8v-36.8h83.3v-33.8H176.6V334L176.6,334z
			 M323.6,334h122.1v-33.8h-83.3V158.9h-38.8L323.6,334L323.6,334z M465.8,334h122.1v-33.8h-83.3V158.9h-38.8L465.8,334L465.8,334z
			 M747.6,221.4v-23.3c0-23.5-15.8-39.3-39.3-39.3H647c-23.3,0-39,15.8-39,39.3v96.6c0,23.5,15.8,39.3,39,39.3h61.3
			c23.5,0,39.3-15.8,39.3-39.3v-23.3h-38.8v21.3c0,5-2.5,7.5-7.5,7.5h-47c-5,0-7.5-2.5-7.5-7.5v-92.6c0-5,2.5-7.5,7.5-7.5h47
			c5,0,7.5,2.5,7.5,7.5v21.3H747.6z M867.4,158.9h-47.5L762.6,334h39.5l11.3-37h59.3l11.3,37h40.8L867.4,158.9L867.4,158.9z
			 M842.9,200.2l19.3,63h-38.5L842.9,200.2L842.9,200.2z M904.7,192.7h50.8V334h38.8V192.7h50.8v-33.8H904.7L904.7,192.7
			L904.7,192.7z"/>
	</g>
</g>
</svg>
