<?xml version="1.0" encoding="UTF-8" standalone="no"?>
<svg
   width="1080.88"
   height="369.20801"
   viewBox="0 0 1080.88 369.20801"
   fill="none"
   version="1.1"
   id="svg17"
   sodipodi:docname="b433e2dda7b7f2c8954158603c38daf0.svg"
   xmlns:inkscape="http://www.inkscape.org/namespaces/inkscape"
   xmlns:sodipodi="http://sodipodi.sourceforge.net/DTD/sodipodi-0.dtd"
   xmlns="http://www.w3.org/2000/svg"
   xmlns:svg="http://www.w3.org/2000/svg">
  <sodipodi:namedview
     id="namedview19"
     pagecolor="#ffffff"
     bordercolor="#666666"
     borderopacity="1.0"
     inkscape:pageshadow="2"
     inkscape:pageopacity="0.0"
     inkscape:pagecheckerboard="0" />
  <g
     opacity="0.4"
     filter="url(#filter0_b_1_5)"
     id="g4"
     transform="translate(11.7868,11.208)">
    <path
       d="M 0.213196,14.2877 H 45.3862 V 132 H 60.9438 V 14.2877 H 106.117 V 0.791989 H 0.213196 Z M 160.313,0.791989 H 141.382 L 92.8349,132 h 15.9321 l 12.371,-33.7392 h 58.857 L 192.366,132 h 16.307 z m -9.747,16.494711 25.305,67.4784 h -50.609 z m 139.299,42.174 h -37.488 c -9.184,0 -14.995,-5.8106 -14.995,-14.9952 V 29.2829 c 0,-9.1846 5.811,-14.9952 14.995,-14.9952 h 34.864 c 9.185,0 14.995,5.8106 14.995,14.9952 v 10.8715 h 15.558 V 28.7206 c 0,-16.8696 -11.247,-27.928611 -27.929,-27.928611 h -40.112 c -16.682,0 -27.929,11.059011 -27.929,27.928611 v 16.3072 c 0,16.6822 11.247,27.9286 27.929,27.9286 h 37.488 c 9.185,0 14.995,5.9981 14.995,15.1826 v 15.183 c 0,9.372 -5.81,15.182 -14.995,15.182 h -34.864 c -9.184,0 -14.995,-5.81 -14.995,-15.182 V 92.6376 h -15.558 v 11.4334 c 0,16.683 11.247,27.929 27.929,27.929 h 40.112 c 16.682,0 27.929,-11.246 27.929,-27.929 V 87.3893 c 0,-16.6822 -11.247,-27.9286 -27.929,-27.9286 z M 419.076,132 h 21.18 L 378.401,65.2714 438.195,0.791989 H 418.888 L 359.657,64.709 V 0.791989 H 344.1 V 132 h 15.557 V 67.8955 Z m 90.681,0 h 15.558 V 76.7052 h 56.044 V 63.2095 H 525.315 V 14.2877 h 65.416 V 0.791989 h -80.974 z m 176.372,-28.678 c 0,9.184 -5.81,15.182 -14.995,15.182 h -36.738 c -9.185,0 -14.995,-5.998 -14.995,-15.182 V 29.2829 c 0,-9.1846 5.81,-14.9952 14.995,-14.9952 h 36.738 c 9.185,0 14.995,5.8106 14.995,14.9952 z m 15.558,0.749 V 28.7206 C 701.687,11.851 690.44,0.791989 673.758,0.791989 h -41.986 c -16.682,0 -27.929,11.059011 -27.929,27.928611 v 75.3504 c 0,16.683 11.247,27.929 27.929,27.929 h 41.986 c 16.682,0 27.929,-11.246 27.929,-27.929 z M 822.044,54.3998 V 28.7206 C 822.044,11.851 810.797,0.791989 794.115,0.791989 H 727.949 V 132 h 15.558 V 82.3284 h 39.549 L 804.987,132 h 17.057 L 799.176,81.9535 c 13.871,-2.0618 22.868,-12.5585 22.868,-27.5537 z m -15.558,-0.5623 c 0,9.1846 -5.81,14.9952 -14.995,14.9952 h -47.984 v -54.545 h 47.984 c 9.185,0 14.995,5.8106 14.995,14.9952 z M 942.394,42.966 V 28.7206 c 0,-16.8696 -11.247,-27.928611 -27.929,-27.928611 h -41.987 c -16.682,0 -27.928,11.059011 -27.928,27.928611 v 75.3504 c 0,16.683 11.246,27.929 27.928,27.929 h 41.987 c 16.682,0 27.929,-11.246 27.929,-27.929 V 89.826 h -15.558 v 13.496 c 0,9.184 -5.811,15.182 -14.995,15.182 h -36.738 c -9.185,0 -14.996,-5.998 -14.996,-15.182 V 29.2829 c 0,-9.1846 5.811,-14.9952 14.996,-14.9952 h 36.738 c 9.184,0 14.995,5.8106 14.995,14.9952 V 42.966 Z M 968.656,132 h 84.724 V 118.504 H 984.213 V 72.9564 h 59.797 V 59.4607 h -59.797 v -45.173 h 69.167 V 0.791989 h -84.724 z m -848.81,214 h 38.777 V 170.88 h -38.777 v 70.548 H 57.8036 V 170.88 H 19.0271 V 346 h 38.7765 v -70.798 h 62.0424 z m 68.731,0 H 310.66 v -33.773 h -83.307 v -37.025 h 70.799 V 241.428 H 227.353 V 204.653 H 310.66 V 170.88 H 188.577 Z m 147.073,0 H 457.733 V 312.227 H 374.426 V 170.88 H 335.65 Z m 142.187,0 H 599.921 V 312.227 H 516.614 V 170.88 H 477.837 Z M 759.62,233.423 v -23.266 c 0,-23.516 -15.761,-39.277 -39.277,-39.277 h -61.292 c -23.266,0 -39.027,15.761 -39.027,39.277 v 96.566 c 0,23.516 15.761,39.277 39.027,39.277 h 61.292 c 23.516,0 39.277,-15.761 39.277,-39.277 v -23.266 h -38.777 v 21.265 c 0,5.003 -2.502,7.505 -7.505,7.505 h -47.032 c -5.004,0 -7.505,-2.502 -7.505,-7.505 v -92.564 c 0,-5.003 2.501,-7.505 7.505,-7.505 h 47.032 c 5.003,0 7.505,2.502 7.505,7.505 v 21.265 z M 879.385,170.88 H 831.853 L 774.563,346 h 39.527 l 11.258,-37.025 h 59.291 L 895.896,346 h 40.778 z m -24.517,41.278 19.264,63.044 h -38.527 z m 61.883,-7.505 h 50.784 V 346 h 38.775 V 204.653 h 50.79 V 170.88 H 916.751 Z"
       fill="#ffffff"
       id="path2" />
  </g>
  <defs
     id="defs15">
    <filter
       id="filter0_b_1_5"
       x="-11.7868"
       y="-11.208"
       width="1080.88"
       height="369.20801"
       filterUnits="userSpaceOnUse"
       color-interpolation-filters="sRGB">
      <feFlood
         flood-opacity="0"
         result="BackgroundImageFix"
         id="feFlood6" />
      <feGaussianBlur
         in="BackgroundImage"
         stdDeviation="6"
         id="feGaussianBlur8" />
      <feComposite
         in2="SourceAlpha"
         operator="in"
         result="effect1_backgroundBlur_1_5"
         id="feComposite10" />
      <feBlend
         mode="normal"
         in="SourceGraphic"
         in2="effect1_backgroundBlur_1_5"
         result="shape"
         id="feBlend12" />
    </filter>
  </defs>
</svg>
